<svg width="40" height="40" viewBox="0 0 24 24" fill="none" xmlns="http://www.w3.org/2000/svg">
  <!-- Leaf shape with serrated edges -->
  <path d="M12 2C12 2 16 4 17.5 8C18.5 10.5 19 13 18.8 15C18.5 17.5 17 19.5 15 20.5C13.5 21.2 12 21.5 12 21.5C12 21.5 10.5 21.2 9 20.5C7 19.5 5.5 17.5 5.2 15C5 13 5.5 10.5 6.5 8C8 4 12 2 12 2Z" 
        fill="url(#yellowGradient)" 
        stroke="#B45309" 
        stroke-width="0.3"/>
  
  <!-- Leaf veins -->
  <path d="M12 2L12 21.5" stroke="#B45309" stroke-width="0.8"/>
  <path d="M12 6C10 7.5 8 9 7 11" stroke="#B45309" stroke-width="0.4" opacity="0.6"/>
  <path d="M12 6C14 7.5 16 9 17 11" stroke="#B45309" stroke-width="0.4" opacity="0.6"/>
  <path d="M12 10C10.5 11 9 12.5 8 14" stroke="#B45309" stroke-width="0.4" opacity="0.5"/>
  <path d="M12 10C13.5 11 15 12.5 16 14" stroke="#B45309" stroke-width="0.4" opacity="0.5"/>
  <path d="M12 14C11 15 9.5 16 8.5 17" stroke="#B45309" stroke-width="0.4" opacity="0.4"/>
  <path d="M12 14C13 15 14.5 16 15.5 17" stroke="#B45309" stroke-width="0.4" opacity="0.4"/>
  
  <!-- Gradient definition -->
  <defs>
    <linearGradient id="yellowGradient" x1="12" y1="2" x2="12" y2="21.5">
      <stop offset="0%" stop-color="#FCD34D"/>
      <stop offset="50%" stop-color="#FBBF24"/>
      <stop offset="100%" stop-color="#F59E0B"/>
    </linearGradient>
  </defs>
</svg>
